<?xml version="1.0" encoding="UTF-8"?>
<!DOCTYPE svg PUBLIC "-//W3C//DTD SVG 1.1//EN" "http://www.w3.org/Graphics/SVG/1.1/DTD/svg11.dtd">
<!-- Creator: CorelDRAW -->
<svg xmlns="http://www.w3.org/2000/svg" xml:space="preserve" width="182.816mm" height="76.0568mm" version="1.1" style="fill:currentColor shape-rendering:geometricPrecision; text-rendering:geometricPrecision; image-rendering:optimizeQuality; fill-rule:evenodd; clip-rule:evenodd"
viewBox="0 0 5149.03 2142.15"
 xmlns:xlink="http://www.w3.org/1999/xlink"
 xmlns:xodm="http://www.corel.com/coreldraw/odm/2003">
 <defs>
  <style type="text/css">
<!--   <![CDATA[-->
<!--    .fil0 {fill: white}-->
<!--   ]]>-->
  </style>
 </defs>
 <g id="Слой_x0020_1">
  <metadata id="CorelCorpID_0Corel-Layer"/>
  <path class="fil0" d="M4088.27 814.84c11.33,-24.71 33.91,-51.25 49.03,-79.02 70.67,-129.73 -32.24,-83.6 190.53,-44.55 116.74,23.44 192.67,-80.02 113.04,-73.85 -40.33,3.11 -23.16,43.23 -83.83,28.88 -133.83,-31.66 -142.88,-90.8 -228.81,-94.73 -111.21,-5.09 -130.57,-14.76 -196.15,44.05 -47.53,42.61 -231.6,120.8 -204.23,195.46 10.92,14.34 27.24,14.43 42.95,-2.97 25.02,-50.07 59.12,-79.98 207.04,-132.06 -0.66,207.25 -87.25,307.37 -62.47,394.26 29.87,104.75 91.3,130.81 149.06,197.57 -34.1,19.66 -182.89,58.21 -230.89,72.97 -52.9,16.26 -191.26,47.62 -170.33,111.67 73.42,58.2 362.26,-28.19 435.85,-48.6 72.85,-20.2 438.86,-159.87 566.84,-294.08 66.53,-69.77 132.41,-157.15 102.03,-171.38 -40.17,-18.81 -210.78,130.51 -245.39,148.91 -76.62,40.74 -102.98,68.76 -174.89,8.61 -3.88,-88.19 -11.05,-148.08 -71.02,-204.06 -43.58,-40.7 -126.57,-59.45 -188.37,-57.09zm201.89 302.2l71.16 24.5c-71.8,39.27 -152.35,63.39 -230.86,83.57 -39.98,-22.21 -129.31,-94.14 -131.88,-170.3 -1.67,-49.55 4.91,-115.34 72.6,-135.47 180.71,-53.76 215.69,58.25 218.99,197.7z"/>
  <path class="fil0" d="M4046 480.86c4.01,23.71 34.47,50.04 65.81,47.77 27.38,-1.98 52.77,-23.82 53.19,-56.39 0.91,-70.44 -131.89,-67.68 -119,8.62z"/>
  <path class="fil0" d="M1716.35 2.24c-698.86,65.3 -653.31,1295.03 136.27,1174.85 163.2,-24.84 290.81,-105.13 362.81,-197.75 83.17,-106.97 136.5,-280.68 104.2,-460.19 -51.9,-288.39 -292.61,-545.95 -603.28,-516.91zm-402.97 1336.36l182.75 792.51 10.67 0.31 499.01 10.69c271.46,1.16 727.38,-27.11 678.87,-292.37 -43.58,-238.33 -198.02,-288.16 -430.12,-299.64 -80.94,-4 -472.9,-3.86 -618.47,-2.53l-10.99 -67.92 950.36 -27.23 -22.65 -189.83c-1232.26,83.17 0,0 -1239.43,76zm390.9 630.49l-30.95 -191.28 -1.9 -11.73c351.89,0 745.66,-11.86 750.87,98.27 4.96,104.63 -340.57,104.74 -718.03,104.74zm-1704.29 127.93l80.15 -928.86 422.97 64.78 64.48 14.41 125.81 576.59 73.02 -550.68 424.68 65.04 176.73 790.15 -0.18 -0.01 -370.99 -10.02 -16.44 -614.04 -124.33 613.1 -309.27 -6.63 -6.94 -0.46 -126.26 -722.61 -83.16 718.43 -280.14 -6 -50.15 -3.19zm783.85 -1995.86l31.19 302.97 -412.7 24.21 -6.37 -356.99 -301.78 1.42 -10.74 971.22 330.58 39.38 -7.95 -445.77 411.16 25.33 -31.84 464.68 360.55 42.95 16.17 -1.03 -54.01 -1095.12 -324.25 26.75zm936.3 195.38c275.04,-49.07 454.14,272.93 327.72,496.8 -75.95,134.5 -297.34,175.73 -424.54,98.88 -145.29,-87.79 -206.33,-541.6 96.82,-595.68z"/>
  <path class="fil0" d="M3320.27 2000.18l1828.77 0 -15.34 -87.01c-103.51,-20.64 -297.22,-59.56 -310.81,-74.87 82.4,0.11 205.65,17.05 304.09,36.74l-18.21 -103.27c-299.91,-77.82 -584.84,-142.19 -903.67,-137.81 -446.43,6.14 -699.67,107.1 -907.95,223.93 2.49,-4.68 4.96,-9.55 7.41,-14.58 389.18,-425.99 1232.82,-410.85 1748.81,-385.77l-14.78 -83.87c-488.3,-76.46 -1031.9,-74.73 -1456.12,196.04 -46.03,29.38 -178.7,133.55 -255.24,221.68 40.97,-103.64 73.09,-237.2 79.95,-284.99 62.88,-438.61 -102.38,-875.39 -327.94,-1255.54l-116.98 -11.28c227.24,456.33 509.37,1123.22 320.6,1608.13 -0.46,-305.04 4.06,-546.45 -122.36,-933.14 -101.35,-259.52 -211.38,-499.22 -364.34,-691.01l-64.77 -6.25c99.07,158.59 336.23,677.34 354.58,844.12 -95.18,-179.09 -333.16,-700.81 -407.14,-849.19l-129.06 -12.45c135.76,439.66 319.91,879.84 467.99,1316.62 40.57,119.67 86.56,233.99 126.93,352.72 76.88,13.91 141.34,63.52 175.59,131.03z"/>
 </g>
</svg>
