<?xml version="1.0" encoding="UTF-8"?>
<!DOCTYPE svg PUBLIC "-//W3C//DTD SVG 1.1//EN" "http://www.w3.org/Graphics/SVG/1.1/DTD/svg11.dtd">
<!-- Creator: CorelDRAW -->
<svg xmlns="http://www.w3.org/2000/svg" xml:space="preserve" width="95.4465mm" height="76.0568mm" version="1.1" style="shape-rendering:geometricPrecision; text-rendering:geometricPrecision; image-rendering:optimizeQuality; fill-rule:evenodd; clip-rule:evenodd"
viewBox="0 0 1403.52 1118.4"
 xmlns:xlink="http://www.w3.org/1999/xlink"
 xmlns:xodm="http://www.corel.com/coreldraw/odm/2003">
 <defs>
  <style type="text/css">
   <![CDATA[
    .fil0 {fill:#2B2A29}
   ]]>
  </style>
 </defs>
 <g id="Слой_x0020_1">
  <metadata id="CorelCorpID_0Corel-Layer"/>
  <path class="fil0" d="M896.09 1.17c-364.87,34.09 -341.09,676.13 71.14,613.38 85.21,-12.97 151.83,-54.89 189.42,-103.24 43.42,-55.85 71.26,-146.54 54.4,-240.26 -27.1,-150.57 -152.77,-285.04 -314.97,-269.88zm-210.39 697.7l95.41 413.76 5.57 0.16 260.53 5.58c141.73,0.61 379.76,-14.15 354.43,-152.64 -22.75,-124.43 -103.39,-150.45 -224.56,-156.44 -42.26,-2.09 -246.9,-2.01 -322.9,-1.32l-5.74 -35.46 496.17 -14.22 -11.83 -99.11c-643.35,43.42 0,0 -647.09,39.68zm204.09 329.17l-16.16 -99.87 -0.99 -6.12c183.72,0 389.3,-6.19 392.02,51.31 2.59,54.63 -177.81,54.68 -374.88,54.68zm-889.79 66.79l41.84 -484.95 220.83 33.82 33.67 7.52 65.68 301.04 38.12 -287.51 221.72 33.96 92.27 412.53 -0.09 -0 -193.69 -5.23 -8.58 -320.59 -64.91 320.09 -161.47 -3.46 -3.62 -0.24 -65.92 -377.27 -43.42 375.09 -146.26 -3.13 -26.18 -1.66zm409.24 -1042.02l16.28 158.18 -215.47 12.64 -3.32 -186.38 -157.56 0.74 -5.61 507.07 172.59 20.56 -4.15 -232.73 214.66 13.22 -16.62 242.61 188.24 22.43 8.44 -0.54 -28.2 -571.76 -169.29 13.97zm488.83 102c143.6,-25.62 237.1,142.5 171.1,259.38 -39.65,70.22 -155.24,91.75 -221.65,51.62 -75.86,-45.83 -107.72,-282.77 50.55,-311z"/>
 </g>
</svg>
